<svg xmlns="http://www.w3.org/2000/svg" width="1000" height="181" fill="none" viewBox="0 0 1000 181"><path fill="#38AEE3" d="M643.518 59.7769V81.9723H682.376V97.5607H643.518V128.147H624.084V44.1885H687.533V59.7769H643.518Z"/><path fill="#38AEE3" d="M762.757 63.6123V128.147H745.01V120.465C740.089 126.105 732.891 129.103 724.974 129.103C708.784 129.103 697.385 119.982 697.385 100.075V63.6123H716.089V97.3245C716.089 108.111 720.891 112.913 729.163 112.913C737.436 112.913 744.043 107.402 744.043 95.5196V63.6123H762.747H762.757Z"/><path fill="#38AEE3" d="M846.146 91.2008V128.147H827.443V94.08C827.443 83.6376 822.64 78.8461 814.368 78.8461C805.376 78.8461 798.887 84.3574 798.887 96.2394V128.147H780.183V63.6123H798.06V71.1755C803.098 65.6642 810.651 62.6561 819.407 62.6561C834.64 62.6561 846.146 71.53 846.146 91.2008Z"/><path fill="#38AEE3" d="M929.523 39.1498V128.146H911.647V120.712C906.963 126.342 900.13 129.103 891.493 129.103C873.261 129.103 859.231 116.146 859.231 95.8739C859.231 75.6014 873.261 62.6452 891.493 62.6452C899.41 62.6452 906.125 65.1698 910.798 70.4447V39.139H929.513L929.523 39.1498ZM911.174 95.8739C911.174 84.7224 903.976 77.9972 894.748 77.9972C885.519 77.9972 878.192 84.7117 878.192 95.8739C878.192 107.036 885.39 113.751 894.748 113.751C904.105 113.751 911.174 107.036 911.174 95.8739Z"/><path fill="#38AEE3" d="M940.578 122.141L946.82 108.712C952.579 112.429 961.334 114.954 969.252 114.954C977.889 114.954 981.123 112.676 981.123 109.077C981.123 98.5169 942.136 109.314 942.136 83.5302C942.136 71.2937 953.169 62.6561 972.002 62.6561C980.876 62.6561 990.706 64.6973 996.83 68.2963L990.599 81.6071C984.239 78.0082 977.879 76.8157 972.013 76.8157C963.612 76.8157 960.013 79.4585 960.013 82.8104C960.013 93.8436 999 83.1649 999 108.605C999 120.594 987.848 129.114 968.532 129.114C957.617 129.114 946.584 126.116 940.578 122.152V122.141Z"/><path fill="#38AEE3" d="M99.7622 178.242H2.82634C1.81648 178.242 1 177.426 1 176.416V79.4692C1 36.7542 35.7542 2 78.4692 2H175.416C176.426 2 177.242 2.81648 177.242 3.82634V100.773C177.242 143.488 142.488 178.242 99.7729 178.242H99.7622ZM4.64194 174.589H99.7622C140.468 174.589 173.589 141.468 173.589 100.762V5.64194H78.4692C37.7632 5.64194 4.64194 38.7632 4.64194 79.4692V174.589Z"/><path fill="#38AEE3" d="M89.717 153.114C89.5988 153.114 89.4699 153.103 89.3517 153.071C88.7071 152.942 88.1807 152.469 87.9873 151.835L60.9145 66.2228C60.6137 65.2667 61.1401 64.2461 62.0962 63.9345C63.0846 63.6122 64.073 64.1601 64.3845 65.1162L90.469 147.624L149.32 79.5229C149.976 78.7601 151.125 78.6849 151.888 79.3402C152.651 79.9956 152.737 81.1451 152.07 81.9079L91.0921 152.469C90.7483 152.877 90.2434 153.103 89.717 153.103V153.114Z"/><path fill="#38AEE3" d="M150.696 82.5524C150.277 82.5524 149.858 82.4128 149.525 82.1227L89.7065 31.4578L64.127 66.7492C63.5468 67.5657 62.3973 67.7483 61.5916 67.1574C60.7751 66.5666 60.5925 65.4278 61.1833 64.622L87.9124 27.7406C88.2132 27.3324 88.6644 27.0638 89.1694 26.9994C89.7065 26.9349 90.1792 27.096 90.566 27.4183L151.877 79.351C152.651 80.0063 152.737 81.1558 152.092 81.9186C151.738 82.3483 151.222 82.5632 150.706 82.5632L150.696 82.5524Z"/><path fill="#38AEE3" d="M28.9753 86.5811C28.4059 86.5811 27.858 86.3233 27.5035 85.8291C26.9556 85.0878 27.0523 84.0457 27.7291 83.4226L88.1381 27.4613C88.8257 26.8167 89.8785 26.806 90.5768 27.4398C91.2751 28.0629 91.3933 29.105 90.8454 29.8678L64.1163 66.7492C63.9659 66.964 63.7725 67.1359 63.5469 67.2648L29.867 86.3448C29.5877 86.5059 29.2761 86.5811 28.9646 86.5811H28.9753ZM77.0619 42.6952L41.6953 75.4619L61.4198 64.289L77.0726 42.6952H77.0619Z"/><path fill="#38AEE3" d="M89.7168 153.114C89.2226 153.114 88.7284 152.91 88.3739 152.523L27.6319 85.9904C27.2559 85.5821 27.0947 85.0235 27.1807 84.4756C27.2666 83.9277 27.5997 83.455 28.0831 83.1756L61.763 64.0957C62.2357 63.8271 62.8051 63.7734 63.3315 63.9883C63.8365 64.1924 64.234 64.6114 64.3951 65.1378L91.468 150.75C91.7258 151.567 91.382 152.448 90.6407 152.878C90.3614 153.039 90.0499 153.125 89.7276 153.125L89.7168 153.114ZM31.8647 85.2168L85.4947 143.961L61.6019 68.3608L31.8647 85.2061V85.2168Z"/><path fill="#38AEE3" d="M125.331 100.612C125.041 100.612 124.751 100.536 124.482 100.397L61.8066 67.2863C61.119 66.921 60.743 66.169 60.8612 65.4062C60.9794 64.6327 61.5702 64.0311 62.333 63.8914L119.992 53.2127C120.486 53.116 121.002 53.2342 121.41 53.5457C121.818 53.8465 122.076 54.2978 122.13 54.8027L127.147 98.5919C127.222 99.258 126.921 99.9241 126.362 100.3C126.051 100.515 125.696 100.622 125.331 100.622V100.612ZM68.1343 66.5128L123.129 95.5624L118.724 57.134L68.1236 66.5128H68.1343Z"/><path fill="#38AEE3" d="M89.7169 153.114C89.3301 153.114 88.9326 152.996 88.6103 152.738C87.8476 152.147 87.6757 151.062 88.2128 150.267L123.827 97.7541C123.945 97.5714 124.106 97.4103 124.278 97.2921L149.642 79.2328C150.394 78.7064 151.426 78.8138 152.049 79.4906C152.672 80.1782 152.683 81.2096 152.081 81.9079L91.1028 152.469C90.7482 152.888 90.2433 153.103 89.7276 153.103L89.7169 153.114ZM126.652 100.085L108.722 126.524L139.426 90.9859L126.652 100.075V100.085Z"/><path fill="#252F67" d="M306.129 105.478C306.129 119.874 295.214 128.147 273.985 128.147H233.924V44.1885H271.589C290.905 44.1885 301.692 52.3426 301.692 65.8897C301.692 75.0107 297.018 81.3707 290.422 84.6044C299.898 87.2472 306.139 94.3162 306.139 105.478H306.129ZM245.913 53.9003V80.7691H270.504C282.741 80.7691 289.692 76.2139 289.692 67.3401C289.692 58.4662 282.73 53.9111 270.504 53.9111H245.913V53.9003ZM294.01 104.512C294.01 94.7997 286.812 90.4809 273.502 90.4809H245.913V118.435H273.502C286.812 118.435 294.01 114.234 294.01 104.522V104.512Z"/><path fill="#252F67" d="M357.244 63.9667V75.1181C356.288 74.9999 355.44 74.9999 354.602 74.9999C342.247 74.9999 334.565 82.5631 334.565 96.4648V128.136H323.049V64.5683H334.082V75.247C338.154 67.802 346.071 63.9667 357.234 63.9667H357.244Z"/><path fill="#252F67" d="M369.374 44.9082C369.374 40.7076 372.726 37.345 377.173 37.345C381.621 37.345 384.973 40.5787 384.973 44.6611C384.973 48.9798 381.739 52.3425 377.173 52.3425C372.608 52.3425 369.374 49.1088 369.374 44.9082ZM371.415 64.5682H382.932V128.136H371.415V64.5682Z"/><path fill="#252F67" d="M465.697 64.5684V119.509C465.697 141.941 454.309 152.136 432.715 152.136C421.08 152.136 409.327 148.902 402.366 142.661L407.877 133.787C413.753 138.825 422.993 142.059 432.35 142.059C447.347 142.059 454.18 135.097 454.18 120.712V115.674C448.669 122.27 440.386 125.515 431.276 125.515C412.915 125.515 399.014 113.042 399.014 94.6816C399.014 76.3215 412.926 63.9775 431.276 63.9775C440.751 63.9775 449.389 67.4583 454.782 74.4199V64.5792H465.697V64.5684ZM454.427 94.6816C454.427 82.3269 445.317 74.0547 432.597 74.0547C419.877 74.0547 410.649 82.3269 410.649 94.6816C410.649 107.036 419.77 115.437 432.597 115.437C445.424 115.437 454.427 106.929 454.427 94.6816Z"/><path fill="#252F67" d="M548.001 91.566V128.147H536.484V92.8874C536.484 80.4145 530.243 74.3016 519.327 74.3016C507.091 74.3016 499.173 81.6178 499.173 95.412V128.157H487.656V39.1499H499.173V73.5711C503.975 67.4582 511.893 63.9774 521.605 63.9774C537.086 63.9774 547.99 72.8513 547.99 91.566H548.001Z"/><path fill="#252F67" d="M605.112 124.429C601.631 127.427 596.356 128.866 591.199 128.866C578.361 128.866 571.045 121.787 571.045 108.959V74.0546H560.259V64.5791H571.045V50.6666H582.562V64.5791H600.793V74.0546H582.562V108.476C582.562 115.319 586.161 119.155 592.521 119.155C595.883 119.155 599.117 118.069 601.524 116.157L605.123 124.429H605.112Z"/></svg>