<svg version="1.2" xmlns="http://www.w3.org/2000/svg" viewBox="0 0 317 317" width="317" height="317"><style>.a{fill:#ff6c37}.b{fill:#fff}</style><path fill-rule="evenodd" class="a" d="m0 298.1v-43q0-0.2 0-0.3 0.1-0.2 0.2-0.4 0-0.2 0.2-0.3 0.1-0.2 0.2-0.3 0.2-0.1 0.4-0.2 0.1-0.1 0.3-0.2 0.2-0.1 0.4-0.1 0.3 0 0.5 0h12.1q1.3-0.1 2.6 0.1 1.4 0.2 2.6 0.6 1.3 0.4 2.4 1.1 1.2 0.6 2.2 1.5 3.7 3.3 3.7 10.5v0.5q0 7.2-3.8 10.6-1 0.8-2.2 1.5-1.2 0.6-2.4 1.1-1.3 0.4-2.7 0.6-1.3 0.2-2.7 0.1h-8.6v16.6q0 0.2 0 0.4-0.1 0.2-0.2 0.4-0.1 0.2-0.2 0.3-0.2 0.2-0.4 0.3-0.4 0.2-0.9 0.4-0.4 0.1-0.9 0.1-0.5 0-1-0.1-0.5-0.2-0.9-0.4-0.2-0.1-0.4-0.3-0.1-0.1-0.3-0.3-0.1-0.2-0.1-0.4-0.1-0.2-0.1-0.4zm5.4-21h8.6q0.9 0 1.7-0.1 0.9-0.1 1.7-0.4 0.8-0.3 1.5-0.8 0.7-0.4 1.4-1 0.6-0.7 1-1.5 0.5-0.8 0.8-1.7 0.2-0.9 0.4-1.8 0.1-0.9 0-1.8v-0.8q0.1-0.9 0-1.8-0.1-0.9-0.4-1.8-0.3-0.9-0.8-1.7-0.4-0.8-1-1.5-0.6-0.6-1.3-1-0.8-0.5-1.6-0.8-0.8-0.3-1.6-0.4-0.9-0.1-1.7 0h-8.7z"/><path fill-rule="evenodd" class="a" d="m46.6 286.4v-19.2q0-7.2 3.7-10.6c1.4-1 3-1.9 4.7-2.4 1.7-0.6 3.5-0.9 5.3-0.9 1.8 0 3.6 0.3 5.3 0.9 1.7 0.5 3.3 1.4 4.7 2.4q3.8 3.4 3.8 10.6v19.2q0 7.3-3.8 10.6c-1.4 1.1-3 1.9-4.7 2.5-1.7 0.6-3.5 0.9-5.3 0.9-1.8 0-3.6-0.3-5.3-0.9-1.7-0.6-3.3-1.4-4.7-2.5-2.5-2.2-3.7-5.7-3.7-10.6zm5.3 0q0 9.1 8.4 9.1 0.9 0.1 1.7-0.1 0.8-0.1 1.7-0.4 0.8-0.3 1.5-0.7 0.7-0.5 1.3-1 0.6-0.8 1.1-1.6 0.4-0.8 0.7-1.6 0.3-0.9 0.4-1.8 0.1-0.9 0-1.9v-19.2q0.1-0.9 0-1.8-0.1-0.9-0.4-1.8-0.3-0.9-0.7-1.7-0.5-0.8-1.1-1.5-0.6-0.6-1.3-1-0.7-0.5-1.5-0.8-0.9-0.3-1.7-0.4-0.8-0.1-1.7-0.1-8.4 0-8.4 9.1z"/><path class="a" d="m93.1 293.4q0-0.3 0-0.5 0.1-0.3 0.2-0.6 0.1-0.2 0.2-0.5 0.1-0.2 0.3-0.4 0.1-0.2 0.3-0.4 0.2-0.2 0.4-0.3 0.2-0.1 0.4-0.2 0.2-0.1 0.5-0.1 0.2 0 0.4 0.1 0.2 0.1 0.4 0.2 0.2 0.1 0.3 0.2 0.2 0.2 0.3 0.3 0.9 0.8 1.9 1.8 0.3 0.3 0.7 0.6 0.3 0.2 0.7 0.4 0.4 0.3 0.8 0.5 0.4 0.1 0.8 0.3 0.6 0.2 1.1 0.3 0.6 0.2 1.2 0.3 0.6 0.1 1.2 0.1 0.6 0.1 1.2 0.1 0.9 0 1.7-0.1 0.9-0.1 1.7-0.3 0.9-0.3 1.6-0.7 0.8-0.4 1.5-0.9 0.6-0.6 1.1-1.3 0.4-0.6 0.8-1.4 0.3-0.8 0.4-1.6 0.1-0.8 0.1-1.6 0-0.8-0.1-1.6-0.2-0.8-0.4-1.5-0.3-0.8-0.7-1.4-0.5-0.7-1-1.3-0.6-0.5-1.2-1-0.6-0.5-1.2-0.9-0.7-0.4-1.4-0.8-0.7-0.3-1.4-0.6c-2.1-0.8-4.1-1.6-6.3-2.5q-0.8-0.3-1.5-0.7-0.7-0.4-1.4-0.9-0.6-0.5-1.2-1.1-0.6-0.6-1.1-1.3-0.6-0.7-1-1.6-0.5-0.8-0.7-1.7-0.3-0.9-0.4-1.8-0.1-0.9-0.1-1.9 0-0.7 0-1.5 0.1-0.7 0.3-1.5 0.1-0.7 0.4-1.4 0.2-0.7 0.6-1.4 0.2-0.6 0.6-1.1 0.4-0.6 0.8-1 0.4-0.5 0.9-0.9 0.5-0.4 1.1-0.8 0.5-0.3 1-0.5 0.6-0.3 1.1-0.5 0.6-0.3 1.2-0.5 0.5-0.2 1.1-0.3 0.6-0.1 1.2-0.3 0.6-0.1 1.3-0.1 0.6-0.1 1.2-0.2 0.6 0 1.2 0 1 0 2 0.1 0.9 0.1 1.9 0.2 0.9 0.1 1.9 0.4 0.9 0.2 1.8 0.5c2.4 0.7 3.6 1.8 3.6 3.1q0 0.2 0 0.5-0.1 0.2-0.2 0.5 0 0.2-0.2 0.5-0.1 0.2-0.2 0.4-0.1 0.2-0.3 0.4-0.2 0.2-0.4 0.3-0.2 0.2-0.5 0.2-0.2 0.1-0.5 0.1-0.3-0.1-0.7-0.2-0.4-0.2-0.7-0.3-0.4-0.2-0.7-0.3-0.4-0.2-0.7-0.3-0.7-0.3-1.5-0.6-0.7-0.2-1.5-0.4-0.7-0.1-1.5-0.2-0.7-0.1-1.5-0.1-0.8 0-1.6 0.1-0.8 0.1-1.6 0.3-0.8 0.2-1.6 0.5-0.7 0.3-1.4 0.7-0.6 0.4-1.1 1-0.5 0.6-0.8 1.2-0.3 0.7-0.5 1.4-0.1 0.7 0 1.5-0.1 0.6 0.1 1.3 0.1 0.7 0.4 1.3 0.2 0.6 0.6 1.2 0.5 0.5 1 1 0.6 0.4 1.2 0.9 0.6 0.4 1.3 0.8 0.6 0.3 1.3 0.6 0.7 0.3 1.5 0.6 3 1.1 6.2 2.5 0.8 0.3 1.5 0.8 0.7 0.5 1.4 1.1 0.6 0.5 1.2 1.2 0.6 0.6 1.1 1.4 0.6 0.8 1 1.8 0.4 0.9 0.7 1.9 0.3 1 0.4 2.1 0.1 1 0.1 2 0 6.6-3.9 10-1 0.9-2.2 1.5-1.2 0.7-2.5 1.1-1.3 0.4-2.7 0.6-1.4 0.2-2.7 0.1-1.3 0.1-2.5 0-1.3-0.2-2.5-0.5-1.2-0.3-2.4-0.7-1.1-0.5-2.2-1.1c-2.7-1.6-4-3.1-4-4.7z"/><path class="a" d="m136.7 255.7q0-0.3 0-0.5 0-0.2 0.1-0.4 0-0.2 0.1-0.4 0.1-0.2 0.3-0.4 0.1-0.2 0.2-0.3 0.2-0.2 0.4-0.3 0.2-0.1 0.4-0.1 0.2 0 0.4 0h26q0.2 0 0.4 0 0.2 0 0.4 0.1 0.2 0.1 0.3 0.3 0.2 0.1 0.3 0.3 0.1 0.2 0.2 0.4 0.1 0.2 0.2 0.4 0 0.2 0.1 0.4 0 0.2 0 0.4 0 0.3 0 0.5-0.1 0.2-0.1 0.5-0.1 0.2-0.2 0.4-0.1 0.2-0.2 0.4-0.1 0.2-0.3 0.3-0.1 0.2-0.3 0.3-0.2 0.1-0.4 0.1-0.2 0-0.4 0h-10.2v40q0 0.2-0.1 0.4 0 0.2-0.1 0.4-0.1 0.2-0.3 0.3-0.1 0.2-0.3 0.3-0.5 0.2-0.9 0.4-0.5 0.1-1 0.1-0.5 0-1-0.1-0.5-0.2-0.9-0.4-0.2-0.1-0.3-0.3-0.2-0.1-0.3-0.3-0.1-0.2-0.2-0.4 0-0.2 0-0.4v-40h-10.4q-0.2 0.1-0.4 0-0.2 0-0.3-0.1-0.2-0.1-0.4-0.3-0.1-0.1-0.3-0.3-0.1-0.2-0.2-0.4-0.1-0.2-0.2-0.4-0.1-0.2-0.1-0.5 0-0.2 0-0.4z"/><path class="a" d="m184.7 298.1v-42.1q-0.1-0.5 0-0.9 0.1-0.5 0.4-0.8 0.3-0.4 0.7-0.7 0.4-0.2 0.8-0.3 0.1 0 0.2 0 0.1 0 0.2 0 0.1 0 0.3 0 0.1 0 0.2 0 2.5 0 4.2 3.4l10 19.2 10.2-19.2q1.8-3.4 4.2-3.4 0.5-0.1 0.9 0.1 0.5 0.1 0.9 0.3 0.3 0.3 0.6 0.7 0.2 0.4 0.3 0.9 0 0 0 0.1 0 0.1 0 0.2 0 0.1 0 0.2 0 0 0 0.1v42.1q0 0.2-0.1 0.4 0 0.2-0.1 0.4-0.1 0.2-0.3 0.4-0.1 0.1-0.3 0.2-0.4 0.3-0.9 0.4-0.5 0.1-1 0.1-0.5 0-1-0.1-0.4-0.1-0.9-0.4-0.2-0.1-0.3-0.2-0.2-0.2-0.3-0.4-0.1-0.2-0.1-0.4-0.1-0.2-0.1-0.4v-33.5l-9.6 18.2q-0.1 0.3-0.3 0.6-0.2 0.3-0.5 0.5-0.3 0.2-0.6 0.3-0.4 0.1-0.7 0.1-0.4 0-0.7-0.1-0.3-0.1-0.6-0.3-0.2-0.3-0.4-0.5-0.2-0.3-0.3-0.6l-9.7-18.5v33.9q0 0.2 0 0.4-0.1 0.2-0.2 0.4-0.1 0.2-0.2 0.3-0.2 0.2-0.4 0.3-0.2 0.1-0.4 0.2-0.2 0.1-0.4 0.2-0.3 0.1-0.5 0.1-0.2 0.1-0.5 0.1-0.2 0-0.5-0.1-0.2 0-0.5-0.1-0.2 0-0.4-0.1-0.3-0.1-0.5-0.3-0.2-0.1-0.3-0.2-0.2-0.2-0.3-0.4-0.1-0.2-0.2-0.4 0-0.2 0-0.4z"/><path fill-rule="evenodd" class="a" d="m237.2 297.8q0-0.1 0-0.2 0 0 0-0.1 0-0.1 0-0.1 0.1-0.1 0.1-0.2l13.1-42q0.5-1.9 3.2-1.9 2.7 0 3.3 1.9l13.1 42.3q0 0 0 0 0 0 0 0.1 0 0 0 0 0 0.1 0 0.1 0 0 0 0 0 0.1 0 0.1 0 0 0 0 0 0.1 0 0.1 0 0.2-0.1 0.5-0.1 0.2-0.2 0.4-0.1 0.2-0.3 0.4-0.2 0.1-0.4 0.2-0.3 0.2-0.5 0.3-0.3 0.1-0.6 0.2-0.3 0.1-0.6 0.1-0.3 0.1-0.6 0.1-0.3 0-0.6-0.1-0.4 0-0.6-0.2-0.3-0.2-0.5-0.4-0.2-0.2-0.3-0.5l-2.8-9.4h-16.8l-2.8 9.4q-0.1 0.3-0.3 0.5-0.2 0.3-0.4 0.5-0.3 0.1-0.6 0.2-0.3 0-0.7 0-0.2 0-0.5-0.1-0.3 0-0.6-0.1-0.3-0.1-0.5-0.2-0.3-0.1-0.5-0.2-0.3-0.2-0.5-0.3-0.1-0.2-0.3-0.4-0.1-0.3-0.2-0.5 0-0.3 0-0.5zm9.2-12.8h14.3l-7.1-23.9z"/><path class="a" d="m288.5 298.1v-43q0-1.8 2.7-1.8 0.3 0 0.6 0 0.3 0.1 0.6 0.2 0.3 0.1 0.6 0.2 0.3 0.2 0.5 0.4 0.3 0.2 0.5 0.6 0.3 0.3 0.5 0.6 0.2 0.3 0.4 0.7 0.2 0.3 0.4 0.7l15.9 31.1v-32.7q0-0.2 0.1-0.4 0-0.2 0.1-0.4 0.1-0.2 0.3-0.3 0.1-0.2 0.3-0.3 0.4-0.2 0.9-0.3 0.5-0.1 1-0.2 0.5 0.1 1 0.2 0.4 0.1 0.9 0.3 0.2 0.1 0.3 0.3 0.2 0.1 0.3 0.3 0.1 0.2 0.1 0.4 0.1 0.2 0.1 0.4v43q0 0.2-0.1 0.4 0 0.2-0.1 0.4-0.1 0.2-0.3 0.3-0.1 0.2-0.3 0.3-0.2 0.1-0.5 0.2-0.2 0.1-0.4 0.2-0.3 0.1-0.5 0.1-0.3 0-0.5 0-0.6 0-1.1-0.2-0.5-0.2-1-0.5-0.4-0.3-0.7-0.8-0.4-0.4-0.6-0.9l-16.6-32.2v32.7q0 0.2-0.1 0.4 0 0.2-0.1 0.4-0.1 0.2-0.3 0.3-0.1 0.2-0.3 0.3-0.4 0.3-0.9 0.4-0.5 0.1-1 0.1-0.5 0-1-0.1-0.5-0.1-0.9-0.4-0.2-0.1-0.3-0.3-0.2-0.1-0.3-0.3-0.1-0.2-0.1-0.4-0.1-0.2-0.1-0.4z"/><path class="a" d="m257.5 128.7c5.1-40.1-14.4-79.3-49.5-99.5-35.1-20.1-78.8-17.1-110.8 7.7-32 24.7-46 66.3-35.4 105.3 10.6 39 43.7 67.8 83.8 73 13 1.7 26.2 0.8 38.9-2.7 12.7-3.4 24.5-9.3 34.9-17.4 10.4-8 19.1-18 25.7-29.4 6.5-11.4 10.7-23.9 12.4-37z"/><path class="b" d="m194.4 80.3l-42.2 42.1-11.9-11.9c41.5-41.5 45.6-37.9 54.1-30.2z"/><path fill-rule="evenodd" class="a" d="m152.2 123.4q-0.1 0-0.2 0-0.1 0-0.2 0-0.1-0.1-0.2-0.1 0-0.1-0.1-0.2l-12-12q-0.1-0.1-0.2-0.3-0.1-0.2-0.1-0.4 0-0.2 0.1-0.3 0.1-0.2 0.2-0.4c42.2-42.2 46.6-38.2 55.5-30.2q0.1 0 0.1 0.1 0.1 0.1 0.1 0.2 0.1 0.1 0.1 0.2 0 0.1 0 0.2 0 0.1 0 0.2 0 0.1-0.1 0.2 0 0.1-0.1 0.2 0 0.1-0.1 0.1l-42.1 42.2q-0.1 0.1-0.1 0.2-0.1 0-0.2 0.1-0.1 0-0.2 0-0.1 0-0.2 0zm-10.5-12.9q0 0 0 0v-0.1zm10.5 10.5l40.7-40.7c-7.4-6.5-12.4-8.5-51.2 30.2z"/><path class="b" d="m164.3 134.5l-11.5-11.5 42.1-42.2c11.4 11.4-5.4 29.9-30.6 53.7z"/><path fill-rule="evenodd" class="a" d="m164.3 135.5h-0.1q-0.1 0-0.2 0 0 0-0.1-0.1-0.1 0-0.2-0.1-0.1 0-0.1-0.1l-11.6-11.5q0-0.1-0.1-0.1 0-0.1-0.1-0.2 0-0.1 0-0.2 0-0.1 0-0.2 0-0.1 0-0.2 0-0.1 0-0.2 0.1-0.1 0.1-0.2 0.1 0 0.2-0.1l42.1-42.2q0.2-0.1 0.3-0.2 0.2-0.1 0.4-0.1 0.2 0 0.4 0.1 0.2 0.1 0.3 0.2 1 0.9 1.7 2 0.8 1.1 1.3 2.3 0.5 1.2 0.7 2.5 0.3 1.3 0.2 2.6c-0.1 11.1-12.7 25.1-34.5 45.7q-0.1 0.1-0.2 0.2-0.1 0-0.1 0-0.1 0.1-0.2 0.1-0.1 0-0.2 0zm-10.1-12.5c6.4 6.5 9 9.1 10.1 10.1 16.8-16 33.1-32.4 33.2-43.7q0.1-0.9-0.1-1.9-0.2-1-0.5-1.9-0.3-0.9-0.8-1.8-0.5-0.8-1.2-1.5z"/><path class="b" d="m140.5 110.8l8.5 8.5q0.1 0.1 0.2 0.2 0 0.1 0 0.2-0.1 0.1-0.2 0.2 0 0-0.2 0.1l-17.5 3.8q-0.5 0.1-1-0.2-0.5-0.2-0.8-0.7-0.3-0.5-0.2-1 0.1-0.5 0.5-0.9l10.2-10.2q0.1-0.1 0.1-0.1 0.1 0 0.2 0 0 0 0.1 0 0.1 0 0.1 0.1z"/><path fill-rule="evenodd" class="a" d="m130.9 124.8c-0.5 0-1-0.2-1.4-0.5-0.5-0.3-0.8-0.7-1-1.2-0.2-0.4-0.3-1-0.2-1.5 0.1-0.5 0.4-1 0.8-1.3l10.1-10.2q0.2-0.2 0.5-0.3 0.3-0.1 0.5-0.1 0.3 0 0.6 0.1 0.3 0.1 0.4 0.3l8.5 8.5q0.3 0.3 0.4 0.6 0.1 0.4 0 0.8-0.1 0.3-0.4 0.6-0.3 0.3-0.6 0.4l-17.6 3.7q-0.1 0-0.1 0.1-0.1 0-0.2 0-0.1 0-0.1 0-0.1 0-0.2 0zm9.3-12.9l-9.7 9.8q-0.1 0-0.1 0.1-0.1 0.1-0.1 0.2 0 0.1 0 0.3 0 0.1 0.1 0.2 0 0 0.1 0.1 0.1 0.1 0.2 0.1 0.1 0.1 0.2 0.1 0.1 0 0.2 0l16.5-3.6z"/><path class="b" d="m216.7 56.9c-4.4-4.3-10.9-5.7-16.7-3.6-5.8 2.1-9.9 7.3-10.6 13.4-0.7 6.2 2.2 12.1 7.4 15.5 5.2 3.3 11.8 3.4 17.1 0.2l-11.4-11.4z"/><path fill-rule="evenodd" class="a" d="m205.5 85.7c-5.7 0-11.1-2.8-14.2-7.5-3.2-4.8-3.9-10.8-1.8-16.1 2.2-5.3 6.8-9.2 12.4-10.4 5.6-1.2 11.4 0.5 15.5 4.4q0.1 0.1 0.1 0.2 0.1 0.1 0.1 0.2 0.1 0.1 0.1 0.2 0 0.1 0 0.2 0 0 0 0.1 0 0.1-0.1 0.2 0 0.1 0 0.2-0.1 0.1-0.2 0.2l-13.4 13.4 10.6 10.7q0.1 0.1 0.2 0.1 0 0.1 0.1 0.3 0 0.1 0 0.2 0 0.1 0 0.2 0 0.1 0 0.2-0.1 0.1-0.1 0.2-0.1 0.1-0.2 0.2-0.1 0.1-0.2 0.1-1 0.6-2.1 1.1-1 0.5-2.2 0.8-1.1 0.3-2.3 0.5-1.1 0.1-2.3 0.1zm0-32.3c-4.6 0-9 2.1-11.9 5.7-2.8 3.6-3.9 8.4-2.9 12.9 1.1 4.5 4.1 8.3 8.3 10.2 4.2 2 9.1 2 13.2-0.1l-10.4-10.4q0 0-0.1-0.1-0.1-0.1-0.1-0.2 0-0.1 0-0.2-0.1-0.1-0.1-0.2 0 0 0.1-0.1 0-0.1 0-0.2 0-0.1 0.1-0.2 0.1-0.1 0.1-0.2l13.5-13.4q-1-0.8-2.2-1.5-1.2-0.7-2.4-1.1-1.2-0.5-2.6-0.7-1.3-0.2-2.6-0.2z"/><path class="b" d="m217 57.1l-0.3-0.2-14.2 14.1 11.4 11.4q0.4-0.3 0.8-0.5 0.4-0.3 0.8-0.6 0.4-0.3 0.8-0.6 0.3-0.4 0.7-0.7c1.5-1.5 2.7-3.3 3.5-5.3 0.8-1.9 1.2-4 1.2-6.2 0-2.1-0.4-4.2-1.2-6.2-0.8-1.9-2-3.7-3.5-5.2z"/><path fill-rule="evenodd" class="a" d="m213.9 83.4q-0.1 0-0.2 0-0.1-0.1-0.2-0.1-0.1 0-0.2-0.1-0.1 0-0.1-0.1l-11.4-11.4q0 0-0.1-0.1-0.1-0.1-0.1-0.2 0-0.1 0-0.2-0.1-0.1-0.1-0.2 0 0 0.1-0.1 0-0.1 0-0.2 0-0.1 0.1-0.2 0.1-0.1 0.1-0.2l14.2-14.2q0.1-0.1 0.3-0.2 0.2 0 0.4 0 0.2 0 0.4 0 0.2 0.1 0.3 0.2l0.3 0.3c1.8 1.8 3.2 4.1 4.1 6.5 0.8 2.5 1.1 5.1 0.8 7.7-0.3 2.6-1.2 5.1-2.7 7.3-1.4 2.2-3.3 4-5.5 5.3q-0.1 0.1-0.1 0.1-0.1 0-0.2 0 0 0.1-0.1 0.1-0.1 0-0.1 0zm-9.9-12.4l10 10.1q0.3-0.2 0.6-0.4 0.3-0.2 0.6-0.5 0.2-0.2 0.5-0.4 0.3-0.3 0.5-0.5c1.4-1.4 2.5-3 3.3-4.8 0.7-1.8 1.2-3.7 1.2-5.6 0-2-0.3-3.9-1-5.7-0.7-1.8-1.7-3.5-3-4.9z"/><path class="b" d="m196.1 82q-0.9-0.9-2-1.3-1.1-0.5-2.4-0.5-1.2 0-2.3 0.5-1.1 0.4-2 1.3l-37.7 37.7 6.3 6.3 39.9-35q0.9-0.9 1.5-2 0.5-1.2 0.5-2.4 0.1-1.3-0.4-2.5-0.5-1.2-1.4-2.1z"/><path fill-rule="evenodd" class="a" d="m156 127q-0.1 0-0.2 0-0.1 0-0.2-0.1-0.1 0-0.2-0.1 0 0-0.1-0.1l-6.3-6.3q-0.1-0.1-0.2-0.3-0.1-0.2-0.1-0.4 0-0.2 0.1-0.4 0.1-0.1 0.2-0.3l37.7-37.7q1-1 2.3-1.5 1.3-0.6 2.7-0.6 1.5 0 2.8 0.6 1.3 0.5 2.3 1.5 1.1 1.1 1.6 2.4 0.5 1.4 0.5 2.9-0.1 1.5-0.7 2.8-0.6 1.4-1.7 2.3l-39.9 35q-0.1 0.1-0.1 0.1-0.1 0.1-0.2 0.1 0 0.1-0.1 0.1-0.1 0-0.2 0zm-4.9-7.3l4.9 4.9 39.2-34.4c1.1-0.9 1.7-2.2 1.8-3.6 0.1-1.4-0.4-2.8-1.4-3.8-0.9-1-2.3-1.6-3.7-1.7-1.4 0-2.8 0.6-3.8 1.6z"/><path class="b" d="m120.8 162.6q-0.2 0-0.3 0.2-0.1 0.1-0.1 0.2-0.1 0.1-0.1 0.3 0 0.1 0 0.3l1.7 7.2c0.1 0.4 0.1 0.9 0 1.4-0.2 0.4-0.5 0.8-0.9 1-0.5 0.2-0.9 0.3-1.4 0.2-0.4-0.1-0.9-0.3-1.2-0.7l-10.9-10.9 35.9-35.9 12.3 0.2 8.5 8.4c-2.1 1.8-14.2 13.4-43.5 28.1z"/><path fill-rule="evenodd" class="a" d="m120 174.3q-0.3 0-0.6 0-0.3-0.1-0.6-0.2-0.2-0.1-0.5-0.3-0.2-0.2-0.4-0.4l-11-10.9q-0.1-0.1-0.1-0.2-0.1 0-0.1-0.1-0.1-0.1-0.1-0.2 0-0.1 0-0.2 0-0.1 0-0.2 0-0.1 0.1-0.2 0-0.1 0.1-0.2 0 0 0.1-0.1l35.9-35.9q0.1-0.1 0.1-0.1 0.1-0.1 0.2-0.1 0.1-0.1 0.2-0.1 0.1 0 0.2 0l12.4 0.2q0.1 0 0.2 0 0.1 0 0.1 0.1 0.1 0 0.2 0.1 0.1 0 0.2 0.1l8.4 8.4q0.1 0.1 0.1 0.2 0.1 0.1 0.1 0.2 0 0.1 0.1 0.2 0 0.1 0 0.2 0 0.1-0.1 0.2 0 0.1 0 0.2-0.1 0.1-0.1 0.1-0.1 0.1-0.2 0.2l-0.7 0.6c-10.6 9.3-25 18.6-42.9 27.5l1.7 7.2q0.1 0.5 0 1 0 0.5-0.2 0.9-0.2 0.5-0.6 0.8-0.3 0.4-0.7 0.6-0.2 0.1-0.4 0.2-0.2 0.1-0.3 0.1-0.2 0.1-0.4 0.1-0.2 0-0.4 0zm-11-12.5l10.3 10.2q0.2 0.3 0.6 0.5 0.4 0.1 0.7-0.1 0.4-0.2 0.5-0.6 0.1-0.4-0.1-0.8l-1.7-7.2q-0.1-0.3 0-0.7 0-0.3 0.2-0.6 0.1-0.2 0.3-0.5 0.2-0.2 0.5-0.3c17.8-8.9 32-18.1 42.5-27.3l-7.4-7.4-11.5-0.1z"/><path class="b" d="m99 170.4l8.6-8.6 12.8 12.8-20.4-1.4q-0.5-0.1-0.9-0.4-0.3-0.3-0.5-0.7-0.1-0.5 0-0.9 0.1-0.5 0.4-0.8z"/><path fill-rule="evenodd" class="a" d="m120.4 175.6h-0.1l-20.4-1.4q-0.7-0.1-1.4-0.6-0.5-0.5-0.8-1.2-0.3-0.7-0.1-1.4 0.2-0.8 0.7-1.3l8.6-8.6q0.1-0.2 0.3-0.2 0.2-0.1 0.4-0.1 0.2 0 0.4 0.1 0.2 0 0.3 0.2l12.8 12.8q0.1 0.1 0.2 0.2 0 0.1 0.1 0.3 0 0.1 0 0.3 0 0.1-0.1 0.3-0.1 0.1-0.2 0.2-0.1 0.1-0.2 0.2-0.1 0.1-0.2 0.1-0.2 0.1-0.3 0.1zm-12.8-12.4l-7.9 7.9q0 0-0.1 0.1 0 0.1 0 0.2-0.1 0.1-0.1 0.2 0 0.1 0.1 0.1 0 0.1 0 0.2 0.1 0.1 0.2 0.1 0 0.1 0.1 0.1 0.1 0.1 0.2 0.1l17.7 1.2z"/><path fill-rule="evenodd" class="a" d="m139.9 130.5q-0.3 0-0.6-0.1-0.2-0.2-0.4-0.5-0.1-0.3 0-0.6 0-0.3 0.2-0.5l9.8-9.7q0.1-0.1 0.3-0.2 0.2-0.1 0.4-0.1 0.2 0 0.4 0.1 0.1 0.1 0.3 0.2l6.2 6.3q0.1 0.1 0.2 0.2 0.1 0.1 0.1 0.2 0.1 0.2 0.1 0.3-0.1 0.1-0.1 0.3 0 0.1-0.1 0.2-0.1 0.1-0.2 0.2-0.1 0.1-0.2 0.2-0.1 0-0.2 0.1l-16 3.4q-0.1 0-0.1 0 0 0 0 0-0.1 0-0.1 0 0 0 0 0zm9.7-9.3l-6.6 6.6 10.9-2.3z"/><path class="b" d="m155.8 126.1l-11 2.3q-0.4 0.2-0.9 0-0.5-0.3-0.7-0.7-0.2-0.4-0.2-0.9 0.1-0.5 0.5-0.9l6-6.1z"/><path fill-rule="evenodd" class="a" d="m144.6 129.5c-0.5 0-1-0.2-1.4-0.4-0.4-0.3-0.8-0.7-1-1.2-0.2-0.4-0.2-0.9-0.1-1.4 0.1-0.5 0.3-1 0.7-1.3l6.1-6.1q0.1-0.1 0.3-0.2 0.2-0.1 0.4-0.1 0.2 0 0.4 0.1 0.1 0.1 0.3 0.2l6.2 6.3q0.1 0.1 0.2 0.2 0.1 0.1 0.1 0.2 0.1 0.2 0.1 0.3-0.1 0.1-0.1 0.3 0 0.1-0.1 0.2-0.1 0.1-0.2 0.2-0.1 0.1-0.2 0.2-0.1 0-0.2 0.1l-11 2.3q-0.1 0.1-0.2 0.1 0 0-0.1 0-0.1 0-0.1 0-0.1 0-0.1 0zm5-8.3l-5.4 5.4q-0.1 0.1-0.1 0.1-0.1 0.1-0.1 0.2 0 0.1 0 0.2 0.1 0 0.1 0.1 0 0.1 0.1 0.2 0.1 0 0.1 0 0.1 0.1 0.2 0.1 0.1 0 0.2 0l9.1-2z"/><path class="a" d="m217.1 66.7c-0.1-0.3-0.4-0.6-0.7-0.7-0.3-0.1-0.6-0.1-0.9 0-0.3 0.2-0.6 0.4-0.7 0.7 0 0.4 0 0.7 0.2 1q0.2 0.4 0.3 0.9 0.1 0.5 0 1 0 0.5-0.2 1-0.2 0.5-0.5 0.8-0.2 0.2-0.2 0.4-0.1 0.3-0.1 0.5 0 0.2 0.1 0.4 0.1 0.2 0.3 0.4 0.2 0.1 0.4 0.2 0.2 0.1 0.5 0 0.2 0 0.4-0.1 0.2-0.1 0.3-0.3 0.6-0.6 0.9-1.4 0.3-0.8 0.4-1.6 0.1-0.8 0-1.6-0.2-0.9-0.5-1.6z"/></svg>