<svg xmlns="http://www.w3.org/2000/svg" width="16" height="16" fill="none" viewBox="0 0 16 16"><mask id="mask0_7201_28785" style="mask-type:alpha" width="16" height="16" x="0" y="0" maskUnits="userSpaceOnUse"><rect width="16" height="16" fill="#D9D9D9"/></mask><g mask="url(#mask0_7201_28785)"><path fill="#0E2225" d="M-4 18.74L8 -2L20 18.74H-4ZM8 15.4653C8.30909 15.4653 8.56818 15.3607 8.77727 15.1514C8.98636 14.9422 9.09091 14.683 9.09091 14.3737C9.09091 14.0644 8.98636 13.8052 8.77727 13.5959C8.56818 13.3867 8.30909 13.2821 8 13.2821C7.69091 13.2821 7.43182 13.3867 7.22273 13.5959C7.01364 13.8052 6.90909 14.0644 6.90909 14.3737C6.90909 14.683 7.01364 14.9422 7.22273 15.1514C7.43182 15.3607 7.69091 15.4653 8 15.4653ZM6.90909 12.1905H9.09091V6.73263H6.90909V12.1905Z"/></g></svg>